<?xml version="1.0" standalone="no"?>
<!DOCTYPE svg PUBLIC "-//W3C//DTD SVG 20010904//EN"
 "http://www.w3.org/TR/2001/REC-SVG-20010904/DTD/svg10.dtd">
<svg version="1.0" xmlns="http://www.w3.org/2000/svg"
 width="260.000000pt" height="260.000000pt" viewBox="0 0 260.000000 260.000000"
 preserveAspectRatio="xMidYMid meet">
<metadata>
Created by potrace 1.11, written by Peter Selinger 2001-2013
</metadata>
<g transform="translate(0.000000,260.000000) scale(0.100000,-0.100000)"
fill="#000000" stroke="none">
<path d="M520 1950 c-35 -31 -515 -643 -514 -655 1 -6 118 -158 261 -337 l260
-324 248 0 c178 1 249 4 252 13 2 6 15 24 29 40 14 15 44 53 67 83 23 30 45
57 48 60 3 3 33 40 66 83 l61 77 138 -172 c75 -95 139 -175 141 -178 9 -11
484 -7 497 4 7 6 129 156 270 333 181 226 255 326 249 336 -4 7 -123 157 -265
333 l-256 319 -243 0 -243 0 -40 -50 c-23 -28 -55 -69 -73 -90 -17 -22 -63
-79 -102 -127 l-70 -88 -137 173 c-76 94 -139 174 -141 177 -3 3 -113 5 -245
5 -203 1 -244 -2 -258 -15z m522 -663 c-30 -39 -220 -277 -243 -304 l-27 -32
-132 166 c-72 91 -134 171 -137 179 -3 8 53 86 132 184 l136 171 140 -176 c94
-119 137 -180 131 -188z m936 174 l130 -164 -139 -173 -140 -173 -139 174
c-77 96 -140 176 -140 178 0 2 8 13 18 24 9 12 71 89 137 171 92 116 123 148
132 139 6 -7 70 -86 141 -176z"/>
</g>
</svg>
